<svg width="20" height="20" viewBox="0 0 20 20" fill="none" xmlns="http://www.w3.org/2000/svg">
<path d="M2.875 7.65625C2.875 3.72911 6.0717 0.5 9.99219 0.5C13.9127 0.5 17.1094 3.72911 17.1094 7.65625C17.1094 9.20898 16.6195 10.6813 15.6922 11.9188L9.99219 19.1896L4.299 11.9273C3.36467 10.681 2.875 9.20864 2.875 7.65625ZM5.39063 7.65625C5.39063 10.1937 7.45469 12.2578 9.99219 12.2578C12.5297 12.2578 14.5938 10.1937 14.5938 7.65625C14.5938 5.11875 12.5297 3.05469 9.99219 3.05469C7.45469 3.05469 5.39063 5.11875 5.39063 7.65625Z" stroke="#8C3213"/>
<path d="M7.5625 7.65625C7.5625 6.31716 8.6531 5.22656 9.99219 5.22656C11.3313 5.22656 12.4219 6.31716 12.4219 7.65625C12.4219 8.99534 11.3313 10.0859 9.99219 10.0859C8.6531 10.0859 7.5625 8.99534 7.5625 7.65625Z" stroke="#8C3213"/>
</svg>
