<svg width="20" height="20" viewBox="0 0 20 20" fill="none" xmlns="http://www.w3.org/2000/svg">
<g clip-path="url(#clip0_114_6281)">
<path d="M17.866 3.82565H18.484C18.6996 3.82565 18.8744 3.65085 18.8744 3.43528C18.8744 3.21972 18.6996 3.04492 18.484 3.04492H17.0006C16.785 3.04492 16.6102 3.21972 16.6102 3.43528V4.91869C16.6102 5.13425 16.785 5.30906 17.0006 5.30906C17.2162 5.30906 17.391 5.13425 17.391 4.91869V4.48916C18.5754 6.07488 19.2193 7.99889 19.2193 10C19.2193 15.0835 15.0835 19.2193 10 19.2193C4.91646 19.2193 0.780738 15.0835 0.780738 10C0.780738 4.91646 4.91646 0.780738 10 0.780738C10.376 0.780738 10.7543 0.803574 11.1247 0.848584C11.3385 0.874426 11.5334 0.722221 11.5594 0.508182C11.5854 0.294182 11.433 0.099544 11.219 0.0735455C10.8174 0.0247494 10.4073 0 10 0C7.3289 0 4.81766 1.04018 2.92894 2.92894C1.04018 4.81766 0 7.3289 0 10C0 12.6711 1.04018 15.1823 2.92894 17.0711C4.81766 18.9598 7.3289 20 10 20C12.6711 20 15.1823 18.9598 17.0711 17.0711C18.9598 15.1823 20 12.6711 20 10C20 7.74597 19.247 5.58208 17.866 3.82565Z" fill="#8C3213"/>
<path d="M4.23301 5.8951C4.05083 5.77978 3.80969 5.83405 3.69434 6.01611C2.80317 7.42363 2.40866 9.11634 2.58351 10.7825C2.76093 12.4733 3.52195 14.0678 4.7264 15.2723C6.17994 16.7258 8.08927 17.4526 9.99864 17.4526C11.908 17.4526 13.8173 16.7259 15.2709 15.2723C18.178 12.3652 18.178 7.63493 15.2709 4.72786C14.0683 3.52529 12.4764 2.76454 10.7884 2.58575C9.12531 2.4095 7.43443 2.80092 6.0275 3.68772C5.84508 3.80269 5.79047 4.04374 5.90539 4.22612C6.02035 4.40854 6.26141 4.46315 6.44379 4.34823C9.09588 2.67667 12.4986 3.05974 14.7188 5.27992C17.3215 7.88262 17.3215 12.1175 14.7188 14.7202C12.1161 17.3229 7.88116 17.3229 5.2785 14.7202C3.089 12.5307 2.70019 9.04576 4.35402 6.43381C4.4693 6.25162 4.41516 6.01045 4.23301 5.8951Z" fill="#8C3213"/>
<path d="M15.074 10.3967H15.5554C15.7709 10.3967 15.9457 10.2219 15.9457 10.0063C15.9457 9.79077 15.7709 9.61597 15.5554 9.61597H15.074C14.8584 9.61597 14.6836 9.79077 14.6836 10.0063C14.6836 10.2219 14.8584 10.3967 15.074 10.3967Z" fill="#8C3213"/>
<path d="M4.05469 9.9937C4.05469 10.2093 4.22949 10.3841 4.44506 10.3841H4.92646C5.14202 10.3841 5.31682 10.2093 5.31682 9.9937C5.31682 9.77814 5.14202 9.60333 4.92646 9.60333H4.44506C4.22949 9.60333 4.05469 9.7781 4.05469 9.9937Z" fill="#8C3213"/>
<path d="M10.3979 4.92518V4.44377C10.3979 4.22821 10.2231 4.05341 10.0076 4.05341C9.79199 4.05341 9.61719 4.22821 9.61719 4.44377V4.92518C9.61719 5.14074 9.79199 5.31554 10.0076 5.31554C10.2231 5.31554 10.3979 5.14074 10.3979 4.92518Z" fill="#8C3213"/>
<path d="M9.60156 15.0748V15.5562C9.60156 15.7718 9.77637 15.9466 9.99193 15.9466C10.2075 15.9466 10.3823 15.7718 10.3823 15.5562V15.0748C10.3823 14.8593 10.2075 14.6844 9.99193 14.6844C9.77637 14.6844 9.60156 14.8592 9.60156 15.0748Z" fill="#8C3213"/>
<path d="M8.04143 7.49122C7.88895 7.33882 7.64185 7.33882 7.48933 7.49122C7.33689 7.64366 7.33689 7.89084 7.48933 8.04332L8.81233 9.36631C8.71095 9.55525 8.65329 9.77101 8.65329 10C8.65329 10.7415 9.25657 11.3448 9.99812 11.3448C10.7397 11.3448 11.3429 10.7415 11.3429 10C11.3429 9.77101 11.2852 9.55525 11.1839 9.36631L13.8534 6.69686C14.0058 6.54442 14.0058 6.29723 13.8534 6.14476C13.7009 5.99236 13.4538 5.99236 13.3013 6.14476L10.6318 8.81422C10.4429 8.71284 10.2271 8.65518 9.99812 8.65518C9.76913 8.65518 9.55337 8.71288 9.36443 8.81422L8.04143 7.49122ZM10.5622 10C10.5622 10.311 10.3092 10.5641 9.99812 10.5641C9.68707 10.5641 9.43403 10.311 9.43403 10C9.43403 9.68895 9.68707 9.43592 9.99812 9.43592C10.3092 9.43592 10.5622 9.68895 10.5622 10Z" fill="#8C3213"/>
<path d="M5.27964 5.27964C5.35264 5.20703 5.39437 5.10632 5.39437 5.00365C5.39437 4.90098 5.35264 4.80066 5.27964 4.72766C5.20703 4.65509 5.10667 4.61328 5.00365 4.61328C4.90098 4.61328 4.80027 4.65505 4.72766 4.72766C4.65509 4.80027 4.61328 4.90098 4.61328 5.00365C4.61328 5.10671 4.65505 5.20703 4.72766 5.27964C4.80027 5.35221 4.90098 5.39402 5.00365 5.39402C5.10667 5.39402 5.20703 5.35221 5.27964 5.27964Z" fill="#8C3213"/>
<path d="M12.7029 1.16636C12.806 1.16636 12.9067 1.12494 12.9793 1.05198C13.0519 0.979371 13.0937 0.879007 13.0937 0.775989C13.0937 0.673322 13.0519 0.572607 12.9793 0.499998C12.9067 0.427429 12.806 0.38562 12.7029 0.38562C12.6002 0.38562 12.4995 0.42739 12.4269 0.499998C12.3543 0.572607 12.3125 0.673322 12.3125 0.775989C12.3125 0.879046 12.3543 0.979371 12.4269 1.05198C12.4995 1.12494 12.6002 1.16636 12.7029 1.16636Z" fill="#8C3213"/>
</g>
<defs>
<clipPath id="clip0_114_6281">
<rect width="20" height="20" fill="white"/>
</clipPath>
</defs>
</svg>
