<svg width="16" height="16" viewBox="0 0 16 16" fill="none" xmlns="http://www.w3.org/2000/svg">
<path d="M12.1993 14.5455L10.0059 10.6764C9.98911 10.6515 9.97768 10.6234 9.9723 10.5938C9.96691 10.5643 9.96767 10.534 9.97453 10.5048C9.9814 10.4755 9.99422 10.4481 10.0122 10.424C10.0302 10.4 10.0529 10.3799 10.079 10.3651C10.1051 10.3502 10.134 10.3409 10.1638 10.3377C10.1936 10.3345 10.2238 10.3375 10.2525 10.3466C10.2811 10.3556 10.3076 10.3704 10.3302 10.3901C10.3528 10.4098 10.3712 10.434 10.384 10.4611L12.5775 14.3302L12.1993 14.5455Z" fill="#8C3213"/>
<path d="M7.1677 5.45455C7.12929 5.45414 7.09166 5.44373 7.0585 5.42434C7.02535 5.40496 6.99781 5.37727 6.97861 5.34401L4.78516 1.47783L5.16334 1.25964L7.35679 5.12873C7.38412 5.17821 7.3909 5.23645 7.37566 5.29088C7.36042 5.34531 7.32439 5.39156 7.27534 5.41964C7.24278 5.43974 7.20586 5.45172 7.1677 5.45455Z" fill="#8C3213"/>
<path d="M10.0542 15.1971C9.73207 15.2026 9.41049 15.1674 9.09714 15.0924C5.96987 14.2284 1.86223 6.98182 2.72623 3.85745C3.11949 2.75041 3.8736 1.80777 4.86733 1.18109C5.05932 1.06764 5.25423 0.965818 5.44914 0.872727C5.62802 0.791287 5.83093 0.779869 6.01782 0.840727C6.2047 0.901586 6.36198 1.0303 6.4586 1.20145L8.10223 4.11054C8.1568 4.20584 8.1907 4.31156 8.20173 4.42082C8.21276 4.53009 8.20066 4.64044 8.16623 4.74473C8.13116 4.84924 8.07479 4.94534 8.00068 5.02696C7.92658 5.10858 7.83634 5.17394 7.73569 5.21891C7.57569 5.28873 7.4186 5.36145 7.26732 5.44C6.60696 5.77164 6.22878 6.07127 6.14151 6.33309C5.94078 6.95563 6.17933 8.00873 6.74951 9.01527C7.31969 10.0218 8.08769 10.7607 8.7306 10.8975C8.91969 10.9411 9.31242 10.8975 10.0746 10.3942C10.2201 10.304 10.3655 10.2051 10.5081 10.1033C10.5976 10.0398 10.6995 9.99573 10.8072 9.97403C10.9148 9.95234 11.0258 9.95345 11.133 9.97729C11.2401 10.0011 11.3411 10.0472 11.4294 10.1125C11.5177 10.1778 11.5913 10.2609 11.6455 10.3564L13.2921 13.2655C13.3904 13.4365 13.4208 13.6383 13.3771 13.8308C13.3335 14.0232 13.219 14.1921 13.0564 14.304C12.879 14.4204 12.6899 14.5367 12.4921 14.6444C11.736 15.0227 10.8995 15.2123 10.0542 15.1971ZM5.77205 1.23345C5.7238 1.23435 5.67625 1.24525 5.63242 1.26545C5.45205 1.34982 5.26878 1.44873 5.08842 1.55636C4.19295 2.12583 3.51001 2.9744 3.14514 3.97091C2.7786 5.30036 3.42151 7.712 4.78296 10.112C6.14442 12.512 7.88405 14.304 9.21351 14.6735C10.2548 14.8733 11.3329 14.7261 12.2826 14.2545C12.4688 14.1527 12.6462 14.0451 12.8121 13.9345C12.8833 13.8844 12.9333 13.8095 12.9521 13.7245C12.9709 13.6394 12.9573 13.5504 12.9139 13.4749L11.2673 10.5658C11.2432 10.5235 11.2106 10.4867 11.1716 10.4577C11.1325 10.4286 11.0878 10.408 11.0404 10.3971C10.9906 10.3856 10.9389 10.3849 10.8887 10.3949C10.8385 10.4049 10.7911 10.4255 10.7495 10.4553C10.6011 10.56 10.4586 10.6618 10.3015 10.7462C9.5626 11.2233 9.03023 11.4007 8.62587 11.3105C7.85496 11.136 7.00842 10.3535 6.3626 9.216C5.85933 8.34327 5.42878 7.07491 5.71969 6.18473C5.84478 5.79782 6.27242 5.43127 7.06078 5.02109C7.21787 4.93963 7.38369 4.864 7.54951 4.79127C7.59485 4.77117 7.63556 4.74194 7.6691 4.7054C7.70263 4.66886 7.72827 4.6258 7.74442 4.57891C7.76051 4.53113 7.76623 4.48048 7.76122 4.43032C7.7562 4.38016 7.74056 4.33164 7.71533 4.288L6.06878 1.37891C6.03468 1.33276 5.98982 1.29566 5.93811 1.27081C5.88639 1.24597 5.82938 1.23414 5.77205 1.23636V1.23345Z" fill="#8C3213"/>
</svg>
